<svg width="83" height="80" viewBox="0 0 83 80" fill="none" xmlns="http://www.w3.org/2000/svg">
<path d="M66.7501 16.6231L49.6418 22.514C46.8064 21.4482 43.7778 20.8243 40.622 20.7756C37.1218 20.7214 33.7491 21.3793 30.5998 22.5707L30.6087 22.5623L12.823 15.7846C11.0733 15.1182 9.16073 16.2923 8.97099 18.1418C8.47089 23.0232 8.30983 32.0164 12.3208 39.9591L12.3356 39.9448C10.8995 43.1488 10.0685 46.4777 9.99907 49.6991C9.70635 63.3162 22.9969 69.8322 39.5609 70.09C56.1237 70.3472 69.6864 64.2488 69.9789 50.6308C70.0627 46.7525 69.0572 42.6818 67.1985 38.838C70.5862 31.5245 70.7646 23.5869 70.498 19.0984C70.3889 17.2443 68.5278 16.0108 66.7501 16.6231Z" fill="#FAFBFB"/>
<path d="M66.9903 17.6386L49.8821 23.5295C48.2122 22.9016 46.4746 22.4323 44.6841 22.1386C41.0612 26.5618 39.4623 32.5234 40.8691 38.4706C43.2813 48.6687 53.6078 54.9562 63.9334 52.5137C66.2234 51.9721 68.3196 51.045 70.1715 49.8216C69.9605 46.5043 69.0079 43.0988 67.4388 39.8535C70.8265 32.54 71.0048 24.6024 70.7383 20.1139C70.6292 18.2598 68.768 17.0263 66.9903 17.6386Z" fill="#D3670D"/>
<path d="M16.9797 22.7165C16.0709 22.3703 15.0771 22.981 14.9792 23.941C14.7317 26.3519 14.6479 30.6946 16.4324 34.6627C16.523 34.8654 16.6156 35.0685 16.7167 35.2696L16.7259 35.2665C16.7259 35.2665 16.9361 34.6816 17.4527 33.7839C18.5778 31.8288 21.1594 28.387 26.2133 26.2413L26.2179 26.2375L16.9797 22.7165Z" fill="#ED2A84"/>
<path d="M18.8583 31.3878C18.03 28.7301 18.3353 25.9917 18.6338 24.4562C18.6937 24.1489 18.8891 23.9082 19.1408 23.7751L23.4444 25.4144L25.3997 26.3665C22.331 27.8105 20.2327 29.7269 18.8583 31.3878Z" fill="#BE2280"/>
<path d="M16.3152 23.5066C16.2396 23.5245 16.1796 23.5549 16.1383 23.5799C15.9787 23.6768 15.8764 23.839 15.8568 24.0248C15.6544 26.0046 15.5376 29.663 16.7882 33.1809C17.8343 31.4175 20.0305 28.507 24.0143 26.3347L16.6589 23.532C16.5271 23.4816 16.4089 23.4845 16.3152 23.5066ZM16.9259 36.1157C16.5305 36.2093 16.1101 36.0281 15.9254 35.6621C15.8191 35.4506 15.7221 35.2359 15.625 35.0213C13.7343 30.8157 13.8587 26.2223 14.101 23.8583C14.1761 23.1242 14.5833 22.4819 15.2179 22.0951C15.8511 21.7096 16.6104 21.6385 17.3017 21.9017L26.5388 25.422C26.8161 25.5276 27.0201 25.7645 27.0817 26.052C27.1425 26.3398 27.0537 26.6396 26.8436 26.8488C26.7629 26.9298 26.6631 26.9991 26.5575 27.0438C21.7079 29.1018 19.2518 32.418 18.2194 34.2122C17.7558 35.0193 17.5595 35.5517 17.5571 35.5567C17.4687 35.7973 17.2786 35.9911 17.0367 36.0815C17.0001 36.0955 16.9629 36.107 16.9259 36.1157Z" fill="#000072"/>
<path d="M13.6211 39.1055C13.9048 39.5261 13.9655 40.0703 13.7468 40.5577C12.3491 43.6782 11.6071 46.7619 11.5432 49.7229C11.4169 55.632 14.0238 60.3056 19.2921 63.6137C24.2418 66.7218 31.2619 68.433 39.5935 68.5627C47.926 68.6922 55.0142 67.1994 60.0945 64.2477C65.5018 61.1058 68.3076 56.5163 68.4347 50.607C68.5108 47.0604 67.6016 43.2206 65.8043 39.5022C65.6073 39.0951 65.603 38.6201 65.7948 38.2072C69.1021 31.0678 69.1956 23.2318 68.9562 19.196C68.9319 18.7902 68.7241 18.4297 68.3844 18.2061C68.0479 17.9845 67.6354 17.9332 67.251 18.0654L50.1427 23.9563C49.8002 24.0741 49.4252 24.0696 49.0855 23.9419C46.3118 22.8992 43.4529 22.3481 40.5884 22.3031C37.4245 22.2545 34.2461 22.8243 31.1451 23.9971C30.7124 24.1595 30.2522 24.1214 29.8698 23.9205L12.2609 17.2112C11.8836 17.0665 11.4678 17.1047 11.123 17.3163C10.7739 17.5288 10.55 17.883 10.5085 18.2873C10.0458 22.8048 9.84056 31.4884 13.6211 39.1055ZM52.7189 70.3242C48.8234 71.2466 44.4024 71.6935 39.5281 71.6173C20.0762 71.3147 8.16986 62.9069 8.45464 49.6745C8.52211 46.5252 9.25291 43.2792 10.6272 40.0136C6.73579 31.832 6.94703 22.7516 7.43424 17.9961C7.57376 16.6327 8.33134 15.4377 9.51163 14.7175C10.6889 13.9997 12.1004 13.8694 13.3861 14.3586L30.6342 20.9318C33.9239 19.7619 37.2918 19.1957 40.6546 19.2483C43.6938 19.295 46.7228 19.848 49.6653 20.8903L66.2491 15.1808C67.556 14.7309 68.9606 14.9052 70.1058 15.6599C71.2549 16.4155 71.9595 17.633 72.0407 19.0007C72.2895 23.1993 72.1957 31.2567 68.8952 38.8159C70.6992 42.7623 71.6061 46.842 71.5241 50.6553C71.3099 60.571 64.3698 67.5674 52.7189 70.3242Z" fill="#000072"/>
<path d="M34.4639 55.53C34.3802 56.024 34.3306 56.536 34.3194 57.0604C34.2283 61.2839 36.6265 64.7454 39.6748 64.7927C42.7232 64.8399 45.2675 61.4554 45.3588 57.2328C45.3698 56.7075 45.3427 56.1939 45.2807 55.6976L34.4639 55.53Z" fill="#000072"/>
<path d="M42.938 60.3254C42.9139 61.4132 41.571 62.275 39.9375 62.2499C38.3041 62.2248 36.9993 61.3213 37.0224 60.2329C37.0465 59.1452 38.3893 58.2833 40.0228 58.3085C41.6562 58.3336 42.961 59.237 42.938 60.3254Z" fill="#ED2A84"/>
<path d="M44.5044 49.7447C44.3928 51.3068 41.5449 53.3082 39.966 53.2065C38.3868 53.104 36.1741 50.7756 36.2856 49.2136C36.3972 47.6515 38.7916 47.4473 40.3707 47.5498C41.9496 47.6515 44.6168 48.1824 44.5044 49.7447Z" fill="#000072"/>
<path d="M40.7548 48.9166C40.711 48.927 40.6693 48.9386 40.6288 48.9518C40.4029 49.025 40.268 49.134 40.26 49.2497C40.2511 49.3657 40.3697 49.4909 40.5835 49.5928C40.8115 49.7011 41.1208 49.7731 41.4545 49.7946C42.1208 49.8369 42.698 49.6601 42.7157 49.4085C42.7339 49.1558 42.1867 48.9069 41.5211 48.8636C41.2428 48.846 40.9758 48.8644 40.7548 48.9166ZM42.2392 49.8197C42.0175 49.8721 41.7448 49.8936 41.4488 49.874C41.105 49.8522 40.7851 49.7773 40.5479 49.6648C40.2992 49.5461 40.1677 49.397 40.1789 49.2447C40.1901 49.0923 40.3416 48.9615 40.6045 48.876C40.8557 48.7941 41.1829 48.7616 41.5268 48.7842C42.2605 48.8312 42.818 49.1081 42.7967 49.4135C42.7836 49.5959 42.5676 49.742 42.2392 49.8197Z" fill="#000072"/>
<path d="M47.3214 53.273C47.4236 53.7051 47.3672 54.1766 47.2451 54.6196C47.1214 55.0676 46.9058 55.4915 46.6342 55.8937C46.3527 56.2884 45.997 56.6532 45.5574 56.94C45.1175 57.2252 44.5939 57.4216 44.0472 57.4972C43.7583 57.5386 43.5262 57.5397 43.2822 57.5481C43.0378 57.5432 42.7937 57.5319 42.5483 57.5039C42.055 57.452 41.5634 57.3388 41.0728 57.1563C40.5841 56.9707 40.0992 56.7053 39.6472 56.2869C39.423 56.0799 39.217 55.8113 39.0537 55.4931C38.8889 55.1726 38.7978 54.7799 38.7954 54.386C38.791 53.7838 39.2819 53.2884 39.8912 53.2815C40.5002 53.2737 40.9984 53.7565 41.002 54.359L41.0012 54.413L41.0011 54.4202C40.9827 54.8145 40.8742 55.2041 40.6955 55.5189C40.5191 55.8323 40.3002 56.0929 40.0684 56.2948C39.5996 56.6997 39.1028 56.9481 38.6062 57.1203C38.1082 57.2865 37.6118 57.3869 37.1173 57.4223C36.8699 57.4431 36.6253 57.4454 36.3817 57.4439C36.1383 57.4279 35.9057 57.4193 35.6187 57.3688C35.0753 57.2778 34.5598 57.0635 34.1325 56.7647C33.7047 56.4643 33.3643 56.0885 33.1002 55.6857C32.8398 55.2793 32.6479 54.8442 32.5456 54.3923C32.4425 53.9452 32.4067 53.4713 32.5286 53.0427C32.7929 53.8722 33.3358 54.5058 33.921 54.9805C34.5126 55.4556 35.1805 55.6965 35.7928 55.6602C35.9317 55.6605 36.1283 55.6355 36.3136 55.6132C36.4971 55.5832 36.6795 55.5598 36.857 55.516C37.2103 55.4325 37.5525 55.3327 37.8551 55.1921C38.157 55.0561 38.4262 54.8894 38.5909 54.7186C38.7758 54.5485 38.7888 54.4307 38.7954 54.386L41.0011 54.4202C41.0036 54.4653 41.0141 54.5829 41.1897 54.761C41.3475 54.9371 41.6099 55.1099 41.9043 55.2572C42.2011 55.4066 42.5389 55.5186 42.889 55.6133C43.0638 55.6616 43.2458 55.6902 43.428 55.7278C43.6124 55.755 43.8076 55.786 43.9467 55.7907C44.5579 55.846 45.2363 55.6246 45.8489 55.1677C46.4608 54.7155 47.0183 54.0906 47.3214 53.273Z" fill="#000072"/>
<path d="M21.635 53.4992L16.2288 52.7895L21.6623 52.2484C22.0118 52.2141 22.3228 52.466 22.3556 52.8115C22.3893 53.1576 22.1329 53.4666 21.7825 53.501C21.7338 53.5063 21.6818 53.5051 21.635 53.4992Z" fill="#000072"/>
<path d="M22.4646 56.4649L17.267 58.1372L21.9427 55.3288C22.2437 55.1473 22.6356 55.242 22.8166 55.539C22.9976 55.8359 22.9003 56.2229 22.599 56.4035C22.5569 56.4288 22.5101 56.4497 22.4646 56.4649Z" fill="#000072"/>
<path d="M24.5112 58.7779L20.5416 62.5031L23.5425 57.9787C23.7359 57.6873 24.1302 57.6048 24.4238 57.7944C24.7174 57.9841 24.7986 58.3737 24.6063 58.6657C24.5787 58.7063 24.5453 58.7456 24.5112 58.7779Z" fill="#000072"/>
<path d="M58.6567 52.824L64.0627 53.5328L58.6301 54.0738C58.2799 54.1091 57.9687 53.8564 57.936 53.5109C57.9022 53.1648 58.1597 52.8564 58.509 52.8213C58.5588 52.8167 58.6099 52.8181 58.6567 52.824Z" fill="#000072"/>
<path d="M58.2442 55.8926L62.7957 58.8449L57.673 57.0121C57.3428 56.8939 57.1739 56.5331 57.2953 56.2058C57.416 55.8797 57.7824 55.7096 58.1118 55.828C58.1584 55.8448 58.2039 55.8681 58.2442 55.8926Z" fill="#000072"/>
<path d="M56.5308 58.4916L59.3353 63.1068L55.529 59.2602C55.2834 59.0126 55.2888 58.6133 55.5408 58.3699C55.7934 58.1255 56.1963 58.1288 56.441 58.3766C56.4756 58.4115 56.5068 58.4516 56.5308 58.4916Z" fill="#000072"/>
<path d="M56.5506 65.9466C57.5045 64.9446 58.4002 63.969 59.215 62.9855L59.3354 63.1068L59.2419 62.9532C60.3922 61.5613 61.382 60.151 62.1563 58.6159L62.7959 58.8448L62.2255 58.475C62.9592 56.9871 63.4898 55.3815 63.7649 53.5629L64.0619 53.533L64.0628 53.5328L64.0619 53.533L64.0628 53.5328L63.7752 53.495C63.8726 52.8364 63.9365 52.1507 63.9653 51.432C65.5561 51.0315 67.0512 50.4448 68.4329 49.7011C68.4404 50.005 68.441 50.307 68.4348 50.607C68.3076 56.5163 65.5019 61.1057 60.0945 64.2477C59.0027 64.8816 57.8197 65.4483 56.5506 65.9466ZM42.9512 23.2162C42.1312 22.8885 41.3029 22.5832 40.4729 22.3017C40.5121 22.3023 40.5502 22.3023 40.5885 22.3031C41.5297 22.318 42.4709 22.3868 43.4078 22.5103C43.2504 22.7429 43.0982 22.978 42.9512 23.2162Z" fill="#C8C9E0"/>
<path d="M63.073 33.1709C62.7302 32.5312 62.2484 31.7415 61.5948 30.8857C62.3514 28.2782 62.1569 25.6598 61.924 24.1379C61.9227 24.1329 61.9224 24.1275 61.9212 24.1225L63.6473 23.534C63.6684 23.5272 63.6895 23.5204 63.7093 23.5157C63.9173 23.4665 64.0831 23.5456 64.1657 23.5996C64.3208 23.7028 64.4152 23.8678 64.4256 24.0536C64.5367 26.0391 64.4855 29.6982 63.073 33.1709Z" fill="#BE2280"/>
<path d="M61.595 30.8856C60.4125 29.3364 58.6684 27.5696 56.1678 26.0848L61.9213 24.1223C61.9225 24.1274 61.9229 24.1327 61.9241 24.1378C62.157 25.6597 62.3515 28.278 61.595 30.8856Z" fill="#981B7D"/>
<path d="M63.249 36.11C63.0702 36.1523 62.8785 36.1403 62.7001 36.065C62.4612 35.9647 62.2697 35.7616 62.1944 35.5159C62.1936 35.5125 62.0219 34.9748 61.5952 34.1533C60.6464 32.3256 58.3459 28.9279 53.5941 26.7062C53.5074 26.6657 53.4282 26.6109 53.3598 26.5446C53.1394 26.3341 53.0441 26.0231 53.1127 25.7263C53.1795 25.429 53.3961 25.1859 53.6875 25.0865L63.08 21.8841C63.1538 21.8585 63.2269 21.8376 63.3017 21.8199C63.9378 21.6695 64.6028 21.7829 65.1537 22.1475C65.7695 22.5558 66.147 23.2115 66.1884 23.9467C66.3207 26.3172 66.2338 30.9116 64.15 35.0497C64.0439 35.2613 63.9368 35.4722 63.8192 35.6811C63.6941 35.9043 63.4836 36.0545 63.249 36.11ZM61.5947 30.8857C62.2483 31.7414 62.7301 32.5311 63.0729 33.1708C64.4853 29.6981 64.5366 26.039 64.4255 24.0536C64.4151 23.8677 64.3207 23.7027 64.1656 23.5995C64.083 23.5456 63.9172 23.4664 63.7092 23.5157C63.6894 23.5203 63.6683 23.5271 63.6472 23.5339L61.9211 24.1224L56.1675 26.0849C58.6682 27.5697 60.4123 29.3365 61.5947 30.8857Z" fill="#000072"/>
<path d="M54.2621 68.3142C55.0536 67.4967 55.8188 66.7142 56.5504 65.9467C57.8195 65.4484 59.0026 64.8817 60.0944 64.2478C65.5017 61.1058 68.3075 56.5164 68.4346 50.6071C68.4408 50.3071 68.4402 50.0051 68.4327 49.7012C68.3508 46.4116 67.449 42.9063 65.8042 39.5022C65.6072 39.0952 65.6029 38.6202 65.7947 38.2073C69.102 31.0679 69.1955 23.2319 68.9561 19.1961C68.9318 18.7903 68.724 18.4298 68.3843 18.2062C68.0844 18.0091 67.7248 17.9471 67.3793 18.0289C67.3363 18.039 67.2928 18.0511 67.2509 18.0655L50.1426 23.9564C50.094 23.9733 50.0447 23.9876 49.994 23.9996C49.694 24.0706 49.3763 24.0516 49.0854 23.942C47.2233 23.2421 45.3227 22.7629 43.4076 22.5104C42.4707 22.3869 41.5295 22.3181 40.5883 22.3032C40.55 22.3024 40.5119 22.3024 40.4727 22.3018C39.1039 21.8376 37.7283 21.4368 36.3592 21.1017C36.6025 21.098 40.2117 20.8109 40.4559 20.8149C43.6117 20.8637 46.6412 21.4873 49.4766 22.5531L66.5849 16.6622C66.6781 16.6303 66.7715 16.6029 66.8652 16.5807C68.5526 16.1816 70.2287 17.3809 70.3329 19.1376C70.5986 23.6262 70.421 31.5637 67.0325 38.8773C68.892 42.7209 69.8976 46.7916 69.8138 50.67C69.6161 59.8538 63.379 65.6126 54.2621 68.3142Z" fill="#000072"/>
<path d="M22.469 43.9739C22.9727 42.9027 23.9027 42.1107 25.0056 41.6042C25.5619 41.3543 26.177 41.207 26.8111 41.1404C27.4463 41.1049 28.105 41.1382 28.7275 41.3218C29.0524 41.3982 29.3136 41.5238 29.6022 41.6312C29.8807 41.7492 30.1537 41.9096 30.4205 42.059C30.9372 42.4092 31.4359 42.8022 31.8113 43.3186C32.5714 44.3141 32.9245 45.6569 32.4649 46.7688C31.8083 45.8115 31.0844 45.2378 30.3583 44.8008C29.9965 44.5798 29.6049 44.4169 29.2219 44.2484C29.0129 44.1858 28.8307 44.0873 28.6162 44.0322C28.4122 43.972 28.1968 43.875 28.0083 43.8452L27.7218 43.7624C27.624 43.7442 27.5253 43.7335 27.4273 43.711C27.2334 43.6511 27.029 43.6618 26.8263 43.6183C26.4144 43.5884 25.9848 43.5681 25.5282 43.5873C24.6116 43.6302 23.6236 43.7743 22.469 43.9739Z" fill="#000072"/>
<path d="M59.3335 43.3897C58.1896 43.1511 57.2086 42.9752 56.2951 42.9009C55.8387 42.8672 55.4087 42.872 54.9958 42.8881C54.7914 42.9257 54.5875 42.9076 54.3914 42.9612C54.2932 42.9799 54.1933 42.9874 54.0952 43.0025L53.8048 43.0757C53.6143 43.0993 53.3961 43.1894 53.188 43.2422C52.9723 43.2897 52.7854 43.3823 52.5734 43.4378C52.1837 43.5937 51.7844 43.7437 51.4135 43.9525C50.6675 44.3638 49.9181 44.914 49.2188 45.8486C48.8097 44.7217 49.224 43.3919 50.0284 42.4216C50.4268 41.9186 50.9433 41.5427 51.4763 41.2096C51.7491 41.0697 52.0292 40.9183 52.3131 40.8099C52.606 40.7128 52.8733 40.5958 53.2009 40.53C53.8305 40.3676 54.4906 40.3567 55.1239 40.4131C55.7545 40.5006 56.3623 40.6679 56.9071 40.9371C57.9858 41.4798 58.8793 42.3021 59.3335 43.3897Z" fill="#000072"/>
<path d="M40.1487 55.4645C40.0353 55.4914 39.9141 55.5012 39.7908 55.49C39.185 55.4352 38.7408 54.9038 38.7994 54.3036L39.1116 51.1261C39.1704 50.5268 39.7094 50.0846 40.3168 50.139C40.9236 50.1945 41.3668 50.7253 41.3082 51.3255L40.996 54.503C40.9493 54.9811 40.5974 55.3584 40.1487 55.4645Z" fill="#000072"/>
</svg>
