<svg width="77" height="64" viewBox="0 0 77 64" fill="none" xmlns="http://www.w3.org/2000/svg">
<path d="M37.891 0.956516C37.891 0.956516 43.664 0.740013 46.9891 4.52929C46.9891 4.52929 56.1603 3.52911 56.1603 23.2592C56.1603 23.2592 70.4834 45.3448 38.1102 45.3448H37.9733C5.59952 45.3448 19.9227 23.2592 19.9227 23.2592C19.9227 3.52911 29.0939 4.52929 29.0939 4.52929C32.419 0.740013 38.1925 0.956516 38.1925 0.956516H37.891Z" fill="#FAFBFB"/>
<path d="M35.8826 1.32916C35.8826 1.32916 28.6328 19.2486 44.7594 24.5871C44.7594 24.5871 53.6501 26.0408 54.6775 33.6732C55.2246 37.7387 60.4829 28.3951 59.6193 18.7214C58.8609 10.2329 53.3888 1.49008 35.8826 1.32916Z" fill="#D3670D"/>
<path d="M38.2113 1.41694C38.2113 1.41694 46.4339 16.3497 31.4544 22.4094C31.4544 22.4094 23.087 24.4558 22.6669 31.1786C22.4433 34.7596 16.7466 27.1036 16.8615 18.6213C16.9625 11.1782 21.5376 3.09895 38.2113 1.41694Z" fill="#D3670D"/>
<path d="M38.11 46.2992H37.9731C26.9304 46.2992 19.9153 43.7424 17.1227 38.6993C13.3154 31.8251 18.8707 23.1117 19.109 22.7443C19.3971 22.3006 19.995 22.1715 20.4437 22.4556C20.893 22.7397 21.0242 23.3298 20.7365 23.7739C20.6846 23.8537 15.5594 31.9115 18.8208 37.7896C21.2516 42.1699 27.6951 44.3908 37.9731 44.3908H38.11C48.3876 44.3908 54.831 42.1699 57.2619 37.7896C60.5237 31.9115 55.3981 23.8537 55.3461 23.7729C55.0595 23.3293 55.1907 22.7392 55.6399 22.4556C56.0891 22.1715 56.686 22.3011 56.9737 22.7443C57.2119 23.1117 62.7678 31.8251 58.9605 38.6993C56.1674 43.7424 49.1522 46.2992 38.11 46.2992Z" fill="#000072"/>
<path d="M46.9894 5.48367C46.7188 5.48367 46.4497 5.37187 46.2587 5.15435C43.6818 2.21786 39.3491 1.93326 38.2078 1.91089C38.2026 1.91089 38.1975 1.91089 38.1923 1.91089H37.8903C37.8846 1.91089 37.879 1.91089 37.8733 1.91089C36.732 1.93326 32.4003 2.21837 29.8244 5.15435C29.4745 5.55229 28.8642 5.59548 28.4613 5.2504C28.0584 4.90532 28.0146 4.30258 28.364 3.90464C31.6439 0.166183 36.963 0.00558281 38.0416 -7.62939e-06C39.1232 0.00100851 44.4392 0.166692 47.7191 3.90464C48.0685 4.30258 48.0248 4.90532 47.6213 5.2504C47.4387 5.40693 47.2133 5.48367 46.9894 5.48367Z" fill="#000072"/>
<path d="M29.0937 4.52927C29.0937 4.52927 23.3938 -0.667267 12.4319 3.98801C1.47042 8.6433 -3.12825 31.1955 5.63588 35.2765C13.3092 38.8493 19.9956 29.9712 21.0921 19.4699C22.1881 8.96805 24.709 10.4841 24.709 10.4841L29.0937 4.52927Z" fill="#D3670D"/>
<path d="M6.98308 35.7812C6.53797 35.6546 6.08875 35.4874 5.63588 35.2765C-3.12825 31.1955 1.47042 8.64331 12.4319 3.98803C15.7493 2.57925 18.5831 2.07254 20.9244 2.0512C21.4775 2.05222 22.0024 2.08068 22.499 2.12997C20.4757 2.31852 18.1421 2.8669 15.5028 3.98803C4.59042 8.62248 -0.0154048 30.9927 8.58906 35.2201C8.06419 35.4432 7.52801 35.6287 6.98308 35.7812Z" fill="#E9B386"/>
<path d="M28.4449 5.22352L28.4109 5.19454L28.3538 5.15033L28.2401 5.06089L27.9869 4.88199C27.8083 4.76968 27.6329 4.65025 27.4435 4.54708C27.071 4.33211 26.6752 4.14864 26.2749 3.9733L25.6605 3.73901C25.4567 3.65872 25.2396 3.60941 25.0302 3.54233C24.6128 3.39952 24.1724 3.33142 23.7412 3.2313C23.3053 3.151 22.8602 3.10933 22.4197 3.04732C21.9731 3.03004 21.527 3.00006 21.0793 2.99041L19.7316 3.04173L18.3865 3.20741C18.1611 3.2252 17.9409 3.28924 17.7181 3.33091L17.0507 3.47017C16.8294 3.5215 16.6041 3.54995 16.3859 3.62009L15.7293 3.81422L15.0722 4.00735L14.7439 4.1034L14.4223 4.22538L13.1364 4.71479L12.8147 4.83677L12.5173 4.97246C12.3172 5.05784 12.1268 5.1666 11.9323 5.26418C11.5494 5.47509 11.1738 5.70124 10.8141 5.95586C10.0916 6.459 9.4124 7.03582 8.78874 7.67465C7.5373 8.95028 6.47625 10.4312 5.59176 12.0128C4.70546 13.5949 3.98547 15.2766 3.4232 17.0076C2.86818 18.7411 2.47243 20.525 2.25548 22.322C2.03916 24.1171 2.01024 25.9319 2.2418 27.6853C2.47845 29.429 2.99482 31.1366 3.94029 32.4712C4.17355 32.8056 4.43989 33.1069 4.72923 33.3768C5.01801 33.6472 5.32984 33.8881 5.67018 34.0807C5.75194 34.1346 5.8404 34.1767 5.92772 34.2204C6.01566 34.2642 6.09779 34.3119 6.19916 34.3495C6.39392 34.4268 6.58586 34.5147 6.78088 34.5864L7.37367 34.7734L7.97417 34.9065C9.58427 35.1998 11.234 34.8135 12.6609 33.9247C14.0914 33.0399 15.3248 31.7454 16.3149 30.2762C17.3095 28.8044 18.0958 27.1715 18.7117 25.4735C19.3256 23.773 19.7558 22.0003 20.0208 20.2028L20.2081 18.825C20.2745 18.3518 20.3393 17.8792 20.4237 17.4081C20.5122 16.9354 20.6157 16.4658 20.7134 15.9957C20.8323 15.5271 20.9599 15.0591 21.0927 14.5956C21.404 13.6696 21.7271 12.7462 22.2633 11.8863C22.3935 11.6708 22.5582 11.468 22.7017 11.2647L22.9662 10.9776C23.011 10.9308 23.0506 10.8825 23.1 10.8388C23.1515 10.7956 23.2045 10.7545 23.2575 10.7143L23.4144 10.5959C23.4664 10.5568 23.5333 10.5293 23.5914 10.4973L23.7695 10.4079L23.9665 10.3525C24.2279 10.296 24.5177 10.3286 24.7091 10.4841C24.4693 10.4297 24.2444 10.4988 24.0715 10.6172L23.9434 10.7062L23.8333 10.8231C23.7983 10.8637 23.7592 10.8942 23.7293 10.94L23.6408 11.0767C23.5137 11.2408 23.4334 11.4604 23.3341 11.6449C23.2606 11.8583 23.1834 12.0616 23.116 12.2725C22.8463 13.1202 22.7223 14.035 22.5648 14.9254C22.5129 15.3828 22.4439 15.8336 22.3878 16.2874C22.3379 16.7453 22.2947 17.2032 22.236 17.6586C22.1553 18.5871 22.0657 19.4714 21.9541 20.4564C21.7107 22.3805 21.2913 24.2868 20.6661 26.1382C20.3481 27.0617 19.9961 27.978 19.568 28.8654C19.1388 29.7517 18.6562 30.6182 18.1056 31.4502C17.5576 32.2831 16.9308 33.077 16.2228 33.8108C15.5137 34.5432 14.7187 35.2186 13.8161 35.7664C12.9171 36.3163 11.9127 36.7438 10.8455 36.9694C9.77981 37.1981 8.65907 37.2144 7.59133 37.0217C7.32684 36.9669 7.0639 36.9043 6.80095 36.8439C6.54418 36.7676 6.2905 36.6823 6.03589 36.6004C5.78647 36.5079 5.54555 36.3997 5.30056 36.2986C5.17969 36.2518 5.05419 36.1837 4.93048 36.1212C4.80637 36.0577 4.68184 35.9957 4.56436 35.9204C4.08123 35.643 3.63891 35.3004 3.23975 34.9243C2.83962 34.5488 2.48133 34.1351 2.17557 33.6965C1.55623 32.8213 1.10737 31.8664 0.791266 30.8957C0.46791 29.924 0.273711 28.935 0.14867 27.948C-0.0881359 25.9726 -0.0273137 24.0027 0.226936 22.0735C0.482369 20.1428 0.929071 18.2482 1.53925 16.4064C2.1501 14.5651 2.92782 12.7751 3.8928 11.0762C4.85695 9.37821 6.01741 7.7697 7.42255 6.35431C8.12288 5.64534 8.89474 4.99533 9.72937 4.42104C10.1446 4.13186 10.5831 3.87064 11.0323 3.6272C11.2613 3.51235 11.4851 3.38885 11.7218 3.28771L12.0727 3.13067L12.416 2.99904L13.7904 2.47253L14.1346 2.34243L14.4892 2.23723L15.1988 2.02682L15.9078 1.81693C16.143 1.74171 16.391 1.70715 16.6318 1.65074L17.36 1.49777C17.6039 1.45152 17.8426 1.38392 18.0922 1.36207L19.5767 1.17707L21.0793 1.11711C21.5815 1.12575 22.0853 1.15726 22.588 1.1786C23.0887 1.24467 23.5925 1.29346 24.09 1.38443C24.5851 1.49522 25.0863 1.57654 25.571 1.73764C25.8133 1.81438 26.0614 1.87334 26.2996 1.96533L27.0159 2.23723C27.4857 2.44001 27.9514 2.65651 28.4011 2.91367C28.6275 3.03767 28.8462 3.18353 29.0675 3.3238C29.2924 3.48134 29.4858 3.61195 29.7426 3.83506C30.1393 4.17963 30.1779 4.77629 29.8291 5.16762C29.4833 5.5564 28.8858 5.59706 28.4891 5.26113L28.4449 5.22352Z" fill="#000072"/>
<path d="M47.3246 4.52927C47.3246 4.52927 53.0245 -0.667267 63.9864 3.98801C74.9478 8.6433 79.5465 31.1955 70.7824 35.2765C63.1091 38.8493 56.4227 29.9712 55.3267 19.4699C54.2301 8.96805 51.7093 10.4841 51.7093 10.4841L47.3246 4.52927Z" fill="#D3670D"/>
<path d="M46.6756 3.83506C46.9324 3.61195 47.1258 3.48134 47.3507 3.3238C47.572 3.18353 47.7907 3.03767 48.0176 2.91367C48.4668 2.65651 48.9325 2.44001 49.4023 2.23723L50.1186 1.96533C50.3568 1.87334 50.6043 1.81438 50.8472 1.73764C51.332 1.57654 51.8331 1.49522 52.3282 1.38443C52.8257 1.29346 53.3295 1.24467 53.8302 1.1786C54.3329 1.15726 54.8367 1.12575 55.3389 1.11711L56.8415 1.17707L58.326 1.36207C58.5756 1.38392 58.8143 1.45152 59.0582 1.49777L59.7864 1.65074C60.0272 1.70715 60.2752 1.74171 60.5098 1.81693L61.22 2.02682L61.929 2.23723L62.2836 2.34243L62.6278 2.47253L64.0022 2.99904L64.3455 3.13067L64.6964 3.28771C64.9336 3.38885 65.1569 3.51235 65.3864 3.6272C65.8352 3.87064 66.2736 4.13186 66.6888 4.42104C67.5235 4.99533 68.2953 5.64534 68.9956 6.35431C70.4009 7.7697 71.5613 9.37821 72.5256 11.0762C73.4904 12.7751 74.2679 14.5651 74.8787 16.4064C75.489 18.2482 75.9357 20.1428 76.1914 22.0735C76.4456 24.0027 76.5063 25.9726 76.2696 27.948C76.1446 28.935 75.9501 29.924 75.6269 30.8957C75.311 31.8664 74.8623 32.8213 74.2427 33.6965C73.9371 34.1351 73.5784 34.5488 73.1786 34.9243C72.7793 35.3004 72.3368 35.643 71.8541 35.9204C71.7362 35.9957 71.6117 36.0577 71.4877 36.1212C71.3642 36.1837 71.2387 36.2518 71.1177 36.2986C70.8728 36.3997 70.632 36.5079 70.3824 36.5999C70.1277 36.6823 69.874 36.7676 69.6172 36.8439C69.3543 36.9043 69.0914 36.9669 68.8269 37.0217C67.7596 37.2144 66.6384 37.1981 65.5727 36.9694C64.5055 36.7438 63.501 36.3163 62.6021 35.7664C61.6995 35.2186 60.9045 34.5432 60.1954 33.8108C59.4874 33.077 58.8606 32.2831 58.3126 31.4502C57.7625 30.6182 57.2794 29.7517 56.8502 28.8654C56.4221 27.978 56.0701 27.0617 55.7521 26.1382C55.1269 24.2868 54.7075 22.3805 54.4641 20.4564C54.3525 19.4714 54.263 18.5871 54.1822 17.6586C54.1235 17.2032 54.0803 16.7453 54.0304 16.2874C53.9743 15.8331 53.9053 15.3828 53.8533 14.9254C53.6959 14.035 53.5719 13.1202 53.3022 12.2725C53.2348 12.0616 53.1576 11.8583 53.0841 11.6449C52.9848 11.4604 52.9045 11.2408 52.7774 11.0767L52.6889 10.94C52.659 10.8942 52.6199 10.8637 52.5849 10.8231L52.4748 10.7057L52.3467 10.6172C52.1738 10.4988 51.9489 10.4297 51.7091 10.4841C51.9006 10.3286 52.1903 10.296 52.4517 10.3525L52.6487 10.4079L52.8268 10.4973C52.8849 10.5293 52.9518 10.5568 53.0043 10.5959L53.1607 10.7148C53.2137 10.7545 53.2667 10.7956 53.3182 10.8388C53.3676 10.8825 53.4072 10.9308 53.452 10.9776L53.7165 11.2647C53.86 11.468 54.0247 11.6708 54.1549 11.8863C54.6911 12.7462 55.0142 13.6696 55.3255 14.5956C55.4583 15.0591 55.5864 15.5271 55.7048 15.9957C55.8026 16.4658 55.906 16.9354 55.9945 17.4081C56.0789 17.8792 56.1442 18.3518 56.2101 18.825L56.3974 20.2028C56.6624 22.0003 57.0926 23.773 57.7065 25.4735C58.3224 27.1715 59.1087 28.8044 60.1028 30.2762C61.0934 31.7454 62.3268 33.0394 63.7573 33.9247C65.1837 34.8135 66.8334 35.1998 68.444 34.9065L69.0445 34.7734L69.6368 34.5864C69.8329 34.5147 70.0243 34.4268 70.2188 34.3495C70.3207 34.3119 70.4025 34.2642 70.4905 34.2204C70.5779 34.1767 70.6665 34.1346 70.7483 34.0807C71.0884 33.8881 71.4002 33.6472 71.6889 33.3768C71.9786 33.1069 72.2446 32.8056 72.4783 32.4706C73.4235 31.1366 73.9396 29.429 74.1764 27.6853C74.4079 25.9319 74.3791 24.1171 74.1625 22.322C73.9458 20.525 73.5501 18.7411 72.9949 17.0076C72.4325 15.2766 71.7126 13.5949 70.8265 12.0128C69.9419 10.4312 68.8809 8.95028 67.6295 7.67465C67.0058 7.03582 66.3266 6.459 65.6046 5.95586C65.2444 5.70124 64.8688 5.47509 64.4859 5.26418C64.2914 5.1666 64.101 5.05784 63.9014 4.97246L63.6035 4.83677L63.2818 4.71479L61.9959 4.22538L61.6743 4.1034L61.346 4.00735L60.6889 3.81422L60.0323 3.62009C59.8141 3.54995 59.5888 3.5215 59.367 3.47017L58.7001 3.33091C58.4778 3.28924 58.2571 3.2252 58.0317 3.20741L56.6866 3.04173L55.3389 2.9904C54.8912 3.00006 54.4456 3.03004 53.9985 3.04732C53.558 3.10932 53.1129 3.151 52.677 3.2313C52.2463 3.33142 51.8054 3.39952 51.388 3.54182C51.1786 3.60941 50.962 3.65871 50.7577 3.73901L50.1428 3.9733C49.743 4.14864 49.3478 4.3321 48.9747 4.54708C48.7853 4.65025 48.6099 4.76967 48.4313 4.88199L48.1781 5.06089L48.0644 5.15033L48.0073 5.19455L47.9733 5.22352L47.9296 5.26061C47.5293 5.6001 46.9257 5.55488 46.5814 5.15948C46.2403 4.76663 46.283 4.17607 46.6756 3.83506Z" fill="#000072"/>
<path d="M47.7629 40.072C47.7629 47.7375 43.3798 53.952 37.9732 53.952C32.5661 53.952 28.183 47.7375 28.183 40.072C28.183 32.4065 32.5661 26.1926 37.9732 26.1926C43.3798 26.1926 47.7629 32.4065 47.7629 40.072Z" fill="white"/>
<path d="M37.9731 27.1465C33.1073 27.1465 29.1493 32.9448 29.1493 40.0721C29.1493 47.1993 33.1073 52.9976 37.9731 52.9976C42.8384 52.9976 46.7965 47.1993 46.7965 40.0721C46.7965 32.9448 42.8384 27.1465 37.9731 27.1465ZM37.9731 54.9059C32.0422 54.9059 27.217 48.2513 27.217 40.0721C27.217 31.8928 32.0422 25.2382 37.9731 25.2382C43.9036 25.2382 48.7287 31.8928 48.7287 40.0721C48.7287 48.2513 43.9036 54.9059 37.9731 54.9059Z" fill="#000072"/>
<path d="M44.7599 43.685C44.7599 47.4321 41.6843 50.4692 37.8909 50.4692C34.097 50.4692 31.0214 47.4321 31.0214 43.685C31.0214 39.9379 34.097 36.9002 37.8909 36.9002C41.6843 36.9002 44.7599 39.9379 44.7599 43.685Z" fill="#000072"/>
<path d="M37.8909 63.0461C42.7957 63.0461 45.701 59.3112 44.4949 51.7865C44.3328 50.7756 44.095 49.8375 43.8048 48.9715C41.9246 43.3612 33.8566 43.3612 31.9764 48.9715C31.6861 49.8375 31.4484 50.7756 31.2863 51.7865C30.0807 59.3112 32.9854 63.0461 37.8909 63.0461Z" fill="#ED2A84"/>
<path d="M43.7977 54.6213C43.6937 54.2198 43.5779 53.8321 43.4524 53.458C42.628 50.9972 40.613 49.6159 38.4518 49.3135C38.5094 48.6676 38.5609 48.0211 38.6056 47.3747C38.6617 46.5661 38.7127 45.757 38.7533 44.9479C39.6795 45.0714 40.5384 45.3936 41.2835 45.8805C42.2617 47.4514 43.1447 49.4639 43.5409 51.9359C43.6937 52.8883 43.7786 53.7853 43.7977 54.6213Z" fill="#A51D7F"/>
<path d="M32.2001 52.1982C32.2129 52.1113 32.2263 52.0239 32.2402 51.9359C32.6364 49.464 33.5199 47.4509 34.4981 45.88C35.2427 45.3936 36.1016 45.0714 37.0283 44.9479C37.0684 45.7565 37.1199 46.5661 37.1755 47.3747C37.2192 48.0013 37.2686 48.6274 37.3242 49.2536C35.3148 49.3186 33.3342 50.3 32.2001 52.1982Z" fill="#A51D7F"/>
<path d="M38.8568 40.7977C38.8687 41.894 38.8368 42.9902 38.792 44.0864C38.7488 45.1827 38.6814 46.2789 38.6057 47.3746C38.5296 48.4708 38.4359 49.5671 38.3217 50.6633C38.2074 51.7595 38.0736 52.8557 37.891 53.952C37.7078 52.8557 37.574 51.7595 37.4598 50.6633C37.346 49.5671 37.2519 48.4708 37.1757 47.3746C37.1001 46.2789 37.0327 45.1827 36.99 44.0864C36.9447 42.9902 36.9128 41.894 36.9246 40.7977C36.9303 40.2707 37.3671 39.8479 37.9007 39.8535C38.4272 39.8591 38.8512 40.2804 38.8568 40.7977Z" fill="#000072"/>
<path d="M37.8904 41.9926C36.5664 43.0609 33.142 46.3109 32.2404 51.9359C31.6327 55.7287 32.0922 58.6357 33.5696 60.3439C34.5725 61.5036 36.0261 62.0921 37.8904 62.0921C39.7547 62.0921 41.2089 61.5036 42.2118 60.3439C43.6891 58.6357 44.1486 55.7282 43.5409 51.9359C42.6399 46.3124 39.2165 43.0624 37.8904 41.9926ZM37.8904 64C35.4699 64 33.4677 63.1645 32.1005 61.5834C30.2449 59.4377 29.6336 55.9986 30.3319 51.6376C31.5905 43.7835 37.1289 40.1488 37.364 39.9978C37.6846 39.7925 38.0968 39.7925 38.4168 39.9978C38.652 40.1488 44.1908 43.7835 45.4495 51.6376C46.1483 55.9986 45.537 59.4377 43.6809 61.5834C42.3137 63.1645 40.3115 64 37.8904 64Z" fill="#000072"/>
<path d="M37.8908 21.5607C44.7341 21.5607 54.3432 24.8143 54.3432 31.5731C54.3432 38.3319 44.7341 44.2623 37.8908 44.2623C31.0475 44.2623 21.4379 38.3319 21.4379 31.5731C21.4379 24.8143 31.0475 21.5607 37.8908 21.5607Z" fill="white"/>
<path d="M37.8902 44.1353C33.3862 44.1353 28.0563 41.7024 24.7424 38.2791C27.958 40.5035 31.9469 41.9108 35.2803 41.9108C42.1236 41.9108 51.7332 35.9804 51.7332 29.2216C51.7332 27.7244 51.2583 26.4005 50.4494 25.2443C52.6446 26.8299 54.1142 28.9329 54.1142 31.5731C54.1142 35.8051 50.3455 39.7128 45.8486 42.0429C43.2768 43.3496 40.4502 44.1353 37.8902 44.1353Z" fill="#B2B2D4"/>
<path d="M37.8904 22.4501C31.6183 22.4501 22.3385 25.3494 22.3385 31.5731C22.3385 37.5391 31.2437 43.3729 37.8904 43.3729C44.5376 43.3729 53.4433 37.5391 53.4433 31.5731C53.4433 25.3494 44.1625 22.4501 37.8904 22.4501ZM37.8904 45.1517C34.3429 45.1517 30.0056 43.627 26.5703 41.1728C22.7362 38.4335 20.5375 34.935 20.5375 31.5731C20.5375 28.1701 22.6632 25.289 26.6856 23.2419C29.8476 21.6318 34.0362 20.6713 37.8904 20.6713C41.745 20.6713 45.9336 21.6318 49.0957 23.2419C53.1181 25.289 55.2443 28.1701 55.2443 31.5731C55.2443 34.935 53.045 38.4335 49.211 41.1728C45.7762 43.627 41.4378 45.1517 37.8904 45.1517Z" fill="#000072"/>
<path d="M38.1925 25.1289C38.1925 25.1289 29.24 24.89 31.2967 29.7089C32.0891 31.5665 33.2948 32.8853 34.4778 33.8052C36.6529 35.4965 39.7316 35.4965 41.9067 33.8052C43.0897 32.8853 44.2953 31.5665 45.0882 29.7089C47.145 24.89 38.1925 25.1289 38.1925 25.1289Z" fill="#000072"/>
<path d="M37.862 26.0787C35.9684 26.0787 32.9865 26.4919 32.1683 27.6766C32.0623 27.8296 31.7412 28.2946 32.1863 29.3385C32.81 30.7991 33.782 32.0498 35.0751 33.0551C36.9106 34.4821 39.4737 34.4826 41.3092 33.0556C42.6023 32.0498 43.5743 30.7991 44.198 29.3385C44.6431 28.2946 44.322 27.829 44.216 27.6766C43.3525 26.4264 40.0788 26.033 38.2176 26.0828L38.1924 26.0833L38.1662 26.0828C38.0689 26.0803 37.967 26.0787 37.862 26.0787ZM38.1924 36.0352C36.6708 36.0358 35.1497 35.5418 33.8798 34.5548C32.3268 33.3473 31.1582 31.8414 30.4064 30.0799C29.6994 28.4237 30.1069 27.2731 30.5731 26.5992C32.2856 24.1241 37.4766 24.1567 38.1924 24.1744C38.9035 24.1577 44.0981 24.1241 45.8111 26.5986C46.2774 27.2731 46.6849 28.4237 45.9784 30.0799C45.2261 31.8414 44.0575 33.3473 42.504 34.5548C41.2351 35.5418 39.7135 36.0352 38.1924 36.0352Z" fill="#000072"/>
<path d="M44.0532 27.2761C44.0532 28.2676 42.6088 29.0716 40.8274 29.0716C39.0459 29.0716 37.6021 28.2676 37.6021 27.2761C37.6021 26.2845 39.0459 25.4806 40.8274 25.4806C42.6088 25.4806 44.0532 26.2845 44.0532 27.2761Z" fill="white"/>
<path d="M41.9343 29.9351C41.5566 29.9351 41.2494 30.2385 41.2494 30.6116C41.2494 30.9846 41.5566 31.288 41.9343 31.288C42.3125 31.288 42.6197 30.9846 42.6197 30.6116C42.6197 30.2385 42.3125 29.9351 41.9343 29.9351ZM41.9343 31.5279C41.4228 31.5279 41.0071 31.1167 41.0071 30.6116C41.0071 30.1064 41.4228 29.6952 41.9343 29.6952C42.4458 29.6952 42.8626 30.1064 42.8626 30.6116C42.8626 31.1167 42.4458 31.5279 41.9343 31.5279Z" fill="#000072"/>
<path d="M65.8603 34.8196C65.1286 34.6412 64.419 34.3368 63.7573 33.9246C62.3268 33.0393 61.0933 31.7454 60.1028 30.2761C59.1086 28.8043 58.3224 27.1714 57.7064 25.4735C57.0926 23.773 56.6624 22.0003 56.3974 20.2027L56.2101 18.8249C56.1442 18.3518 56.0788 17.8792 55.9944 17.408C55.9059 16.9354 55.8025 16.4658 55.7048 15.9957C55.5864 15.5271 55.4583 15.059 55.3255 14.5956C55.0142 13.6696 54.691 12.7461 54.1549 11.8862C54.0247 11.6708 53.86 11.468 53.7164 11.2647L53.452 10.9775C53.4072 10.9308 53.3676 10.8825 53.3182 10.8388C53.2667 10.7956 53.2137 10.7544 53.1607 10.7148L53.0043 10.5959C52.9518 10.5567 52.8849 10.5293 52.8267 10.4973L52.6487 10.4078L52.4516 10.3524C52.3729 10.3357 52.2921 10.3265 52.2113 10.3265C52.0276 10.3265 51.848 10.3738 51.7148 10.479L47.8936 5.28956C47.9059 5.28041 47.9177 5.27075 47.9296 5.26058L47.9733 5.22349L48.0073 5.19452L48.0644 5.1503L48.1781 5.06086L48.4313 4.88196C48.6098 4.76965 48.7853 4.65022 48.9747 4.54705C49.3477 4.33208 49.7429 4.14861 50.1427 3.97327L50.7577 3.73899C50.9619 3.65869 51.1786 3.60939 51.388 3.54179C51.8053 3.39949 52.2463 3.33139 52.677 3.23127C53.0583 3.16114 53.4468 3.11997 53.8327 3.06965C55.678 3.10167 57.8253 3.43506 60.268 4.26956C58.379 5.51164 57.037 7.35445 56.9557 10.7346C56.6526 23.3288 60.835 28.3866 65.8058 29.1494C65.6036 30.9155 65.5681 32.8513 65.8603 34.8196Z" fill="#93482B"/>
<path d="M42.6893 18.4108C43.5646 20.4004 45.4963 21.2614 47.004 20.3334C48.5122 19.4048 49.0247 17.0391 48.1494 15.0489C47.2742 13.0592 45.3425 12.1983 43.8348 13.1263C42.3271 14.0548 41.814 16.4206 42.6893 18.4108Z" fill="#000072"/>
<path d="M43.3968 16.3184C43.5403 17.0665 44.0214 17.5813 44.4712 17.4685C44.9209 17.3557 45.1689 16.6574 45.0254 15.9098C44.8813 15.1617 44.4007 14.6469 43.9509 14.7597C43.5012 14.8725 43.2527 15.5703 43.3968 16.3184Z" fill="white"/>
<path d="M46.6745 17.6566C46.7656 18.0266 47.0203 18.2751 47.2426 18.211C47.4649 18.1475 47.5709 17.7953 47.4798 17.4253C47.3882 17.0554 47.134 16.8068 46.9117 16.8709C46.6889 16.9344 46.5829 17.2861 46.6745 17.6566Z" fill="white"/>
<path d="M33.7414 18.4108C32.8661 20.4004 30.9344 21.2614 29.4267 20.3334C27.919 19.4048 27.406 17.0391 28.2812 15.0489C29.1565 13.0592 31.0882 12.1983 32.5959 13.1263C34.1041 14.0548 34.6166 16.4206 33.7414 18.4108Z" fill="#000072"/>
<path d="M33.0342 16.3184C32.8907 17.0665 32.4095 17.5813 31.9598 17.4685C31.5101 17.3557 31.262 16.6574 31.4056 15.9098C31.5492 15.1617 32.0303 14.6469 32.48 14.7597C32.9298 14.8725 33.1778 15.5703 33.0342 16.3184Z" fill="white"/>
<path d="M29.7561 17.6566C29.665 18.0266 29.4108 18.2751 29.188 18.211C28.9657 18.1475 28.8597 17.7953 28.9513 17.4253C29.0423 17.0554 29.2971 16.8068 29.5194 16.8709C29.7417 16.9344 29.8477 17.2861 29.7561 17.6566Z" fill="white"/>
</svg>
